<?xml version="1.0" encoding="iso-8859-1"?>
<!-- Generator: Adobe Illustrator 21.0.0, SVG Export Plug-In . SVG Version: 6.00 Build 0)  -->
<svg version="1.1" id="Capa_1" xmlns="http://www.w3.org/2000/svg" xmlns:xlink="http://www.w3.org/1999/xlink" x="0px" y="0px"
	 viewBox="0 0 617.547 617.547" style="enable-background:new 0 0 617.547 617.547;" xml:space="preserve">
<g>
	<g>
		<g id="filled_outline_5_">
			<circle style="fill:#2A90DE;" cx="308.773" cy="308.704" r="298.481"/>
			<path style="fill:#2379BA;" d="M493.976,74.726c0,0.803,0.062,1.595,0.062,2.398c-0.021,225.199-163.732,416.978-386.131,452.353
				c121.523,111.385,310.327,103.172,421.712-18.341S632.8,200.808,511.277,89.413C505.699,84.308,499.925,79.409,493.976,74.726z"
				/>
			<polygon style="fill:#67AB73;" points="195.556,318.996 154.387,267.534 82.34,267.534 82.34,360.166 133.802,401.336 
				133.802,483.675 185.264,483.675 185.264,463.09 236.726,391.043 236.726,318.996 			"/>
			<polygon style="fill:#67AB73;" points="463.16,257.241 421.99,257.241 421.99,205.779 423.133,205.779 391.113,164.609 
				277.896,164.609 277.896,236.657 319.066,298.411 380.82,298.411 380.82,421.921 421.99,421.921 463.16,370.458 463.16,329.289 
				504.33,257.241 			"/>
			<path style="fill:#67AB73;" d="M82.34,267.534v-51.462h41.17l41.17-82.34v-41.17h-61.6
				c-17.857,16.983-33.553,36.106-46.728,56.927l0,0c-4.426,6.999-8.543,14.183-12.351,21.563l-0.062,0.124
				c-11.641,22.335-20.389,46.069-26.03,70.627l-0.134,0.597c-1.873,8.234-3.407,16.602-4.59,25.114L82.34,267.534z"/>
			<path style="fill:#67AB73;" d="M329.358,61.685h-41.17v61.755h144.094l61.755,82.34h41.808l36.723-36.723
				c-10.015-18.876-22.026-36.621-35.828-52.934l-0.463-0.535c-3.211-3.777-6.515-7.472-9.901-11.075l-1.112-1.163
				c-3.242-3.427-6.567-6.783-9.984-10.045l-1.245-1.184c-3.479-3.294-7.03-6.505-10.653-9.623
				c-0.329-0.288-0.648-0.576-1.029-0.854c-3.911-3.345-7.915-6.587-12.001-9.737h-0.051
				c-25.597-19.659-54.231-35.025-84.758-45.503l-0.546-0.185c-4.951-1.678-9.953-3.242-15.027-4.673l-0.607-0.165
				c-5.187-1.462-10.437-2.779-15.737-3.963L329.358,61.685z"/>
			<path style="fill:#D0D7DF;" d="M226.434,51.393H92.632c-11.373,0-20.585,9.212-20.585,20.585s9.212,20.585,20.585,20.585h10.416
				l0.443-0.422l61.189,0.422h61.755c11.373,0,20.585-9.212,20.585-20.585S237.807,51.393,226.434,51.393z"/>
			<path style="fill:#D0D7DF;" d="M123.509,318.996H30.877c-11.373,0-20.585,9.212-20.585,20.585
				c0,11.373,9.212,20.585,20.585,20.585h92.632c11.373,0,20.585-9.212,20.585-20.585
				C144.094,328.208,134.882,318.996,123.509,318.996z"/>
			<path style="fill:#D0D7DF;" d="M123.509,318.996H30.877c-11.373,0-20.585,9.212-20.585,20.585
				c0,11.373,9.212,20.585,20.585,20.585h92.632c11.373,0,20.585-9.212,20.585-20.585
				C144.094,328.208,134.882,318.996,123.509,318.996z"/>
			<path style="fill:#D0D7DF;" d="M226.434,483.675H82.34c-11.322,0.103-20.482,9.263-20.585,20.585
				c0,11.373,9.212,20.585,20.585,20.585h144.094c11.373,0,20.585-9.212,20.585-20.585S237.807,483.675,226.434,483.675z"/>
			<path style="fill:#D0D7DF;" d="M586.669,298.411h-51.462c-11.373,0-20.585,9.212-20.585,20.585s9.212,20.585,20.585,20.585
				h51.462c10.015-0.031,18.557-7.266,20.235-17.147c0.082-1.822,0.093-3.664,0.144-5.496
				C606.019,306.45,597.209,298.442,586.669,298.411z"/>
			<path style="fill:#D0D7DF;" d="M582.419,427.921c-4.57-3.849-10.354-5.98-16.334-6H303.627
				c-14.214,0-25.731,11.517-25.731,25.731c0,14.214,11.517,25.731,25.731,25.731h262.457c14.152,0.062,25.669-11.373,25.731-25.525
				C591.846,440.138,588.398,432.81,582.419,427.921z"/>
			<path style="fill:#D0D7DF;" d="M349.943,576.307h77.193c14.214,0,25.731-11.517,25.731-25.731s-11.517-25.731-25.731-25.731
				h-77.193c-14.214,0-25.731,11.517-25.731,25.731S335.729,576.307,349.943,576.307z"/>
			<path style="fill:#61A16C;" d="M164.679,113.147V92.562h-61.6c-6.844,6.515-13.288,13.452-19.494,20.585H164.679z"/>
			<path style="fill:#2379BA;" d="M226.434,92.562h-61.755v20.585h61.755c11.301,0.072,20.513-9.037,20.585-20.338
				c0.021-3.705-0.967-7.349-2.851-10.539C240.514,88.62,233.762,92.542,226.434,92.562z"/>
			<path style="fill:#2A90DE;" d="M277.896,226.364h-36.024c-14.214,0-25.731,11.517-25.731,25.731
				c0,14.214,11.517,25.731,25.731,25.731h63.473l-27.45-41.17V226.364z"/>
			<path style="fill:#2379BA;" d="M519.768,226.364H421.99v30.877h82.34l-11.764,20.585h27.203
				c14.214,0,25.731-11.517,25.731-25.731C545.5,237.881,533.982,226.364,519.768,226.364z"/>
			<polygon style="fill:#61A16C;" points="463.16,257.241 421.99,257.241 421.99,226.364 277.896,226.364 277.896,236.657 
				305.346,277.826 463.16,277.826 492.565,277.826 504.33,257.241 			"/>
			<path style="fill:#D0D7DF;" d="M519.768,205.779H241.872c-14.214,0-25.731,11.517-25.731,25.731
				c0,14.214,11.517,25.731,25.731,25.731h277.896c14.214,0,25.731-11.517,25.731-25.731
				C545.5,217.296,533.982,205.779,519.768,205.779z"/>
			<path style="fill:#2379BA;" d="M586.669,339.581h-51.462c-7.328-0.021-14.08-3.942-17.734-10.292
				c-5.753,9.726-2.532,22.273,7.194,28.026c3.191,1.884,6.834,2.872,10.539,2.851h51.462c7.277,0,14.008-3.87,17.672-10.159
				c0.762-5.496,1.359-11.054,1.822-16.643c-0.453-1.389-1.06-2.728-1.791-3.993C600.718,335.69,593.967,339.591,586.669,339.581z"
				/>
			<path style="fill:#2379BA;" d="M303.627,473.383c-10.22-0.01-19.473-6.073-23.559-15.439
				c-5.681,13.02,0.268,28.191,13.288,33.872c3.242,1.41,6.731,2.141,10.272,2.151H542.71c5.27-6.649,10.262-13.514,14.986-20.585
				H303.627z"/>
			<path style="fill:#2379BA;" d="M247.019,524.845c-0.021-3.623-1.009-7.174-2.851-10.292c-3.654,6.35-10.406,10.272-17.734,10.292
				H103.048c7.637,7.277,15.655,14.152,24.012,20.585h99.374C237.807,545.43,247.019,536.218,247.019,524.845z"/>
			<path style="fill:#2379BA;" d="M427.136,576.307h-77.193c-10.22-0.01-19.473-6.073-23.559-15.439
				c-5.681,13.02,0.268,28.191,13.288,33.872c3.242,1.41,6.731,2.141,10.272,2.151h36.579c23.076-6.217,45.318-15.202,66.242-26.76
				c-0.103-3.191-0.803-6.33-2.059-9.263C446.62,570.245,437.367,576.307,427.136,576.307z"/>
			<path style="fill:#61A16C;" d="M144.094,360.166c-0.021-3.623-1.009-7.174-2.851-10.292c-3.654,6.35-10.406,10.272-17.734,10.292
				H82.34l25.731,20.585h15.439C134.882,380.751,144.094,371.539,144.094,360.166z"/>
			<path style="fill:#61A16C;" d="M421.99,421.921l41.17-51.462v-41.17l41.17-72.047h-47.098
				c-18.948,44.175-44.741,85.098-76.411,121.255v43.424C380.82,421.921,421.99,421.921,421.99,421.921z"/>
			<path style="fill:#61A16C;" d="M519.768,205.779h16.077l36.651-36.651c-0.576-1.091-1.153-2.203-1.75-3.294
				c-1.369-2.511-2.779-5.012-4.23-7.483c-1.338-2.295-2.717-4.57-4.117-6.824s-2.882-4.58-4.364-6.834s-3.088-4.652-4.734-6.947
				c-1.472-2.058-2.964-4.189-4.488-6.248c-1.75-2.357-3.541-4.683-5.352-6.989c-1.503-1.914-3.016-3.819-4.56-5.692
				c-2.058-2.45-4.117-4.848-6.175-7.205c-1.451-1.647-2.902-3.294-4.385-4.91c-2.233-2.429-4.529-4.796-6.844-7.205
				c-1.472-1.492-2.933-2.995-4.436-4.457c-2.419-2.357-4.899-4.642-7.39-6.917c-1.513-1.379-3.016-2.769-4.549-4.117
				c-2.563-2.233-5.146-4.395-7.812-6.536c-1.101-0.906-2.192-1.801-3.314-2.686c0,0.772,0.062,1.534,0.062,2.306
				c-0.01,37.279-4.56,74.414-13.545,110.592l13.524,18.094H519.768z"/>
			<path style="fill:#2379BA;" d="M82.34,380.751h25.731L82.34,360.166H30.877c-7.236-0.021-13.915-3.849-17.59-10.087l-0.062,0.124
				c1.215,8.707,2.82,17.291,4.765,25.731c3.592,3.077,8.162,4.776,12.886,4.817H82.34z"/>
			<path d="M3.201,352.529c6.968,48.488,25.391,94.618,53.737,134.574c-3.52,5.033-5.424,11.023-5.476,17.158
				c0,17.055,13.823,30.877,30.877,30.877h16.736c124.816,115.841,319.899,108.565,435.741-16.252
				c10.241-11.033,19.659-22.798,28.181-35.21h3.088c19.895,0,36.024-16.128,36.024-36.024c-0.01-7.977-2.697-15.727-7.637-21.995
				c13.442-32.678,21.13-67.446,22.715-102.749l0,0l0.144-5.671l0.082-2.378c0.072-2.058,0.134-4.117,0.134-6.175
				c-0.021-50.021-12.186-99.291-35.457-143.569c-0.124-0.309-0.268-0.607-0.422-0.906c-2.573-4.848-5.28-9.623-8.121-14.337
				c-0.329-0.566-0.71-1.101-1.029-1.657c-2.542-4.179-5.177-8.296-7.905-12.351c-0.196-0.298-0.422-0.576-0.618-0.865
				c-2.944-4.323-6-8.574-9.16-12.763c-0.247-0.319-0.525-0.638-0.782-0.967c-2.882-3.777-5.815-7.503-8.872-11.136v-0.051l0,0
				l-0.494-0.587l-0.093-0.082c-0.134-0.154-0.247-0.319-0.381-0.473c-3.325-3.911-6.762-7.73-10.292-11.466l-1.142-1.204
				c-3.366-3.541-6.814-6.999-10.756-10.776l-0.865-0.834c-3.592-3.397-7.266-6.711-11.003-9.953l-1.029-0.885
				c-4.055-3.427-8.193-6.783-12.413-10.066l-0.165-0.124c-26.637-20.441-56.423-36.394-88.206-47.232
				c-5.146-1.739-10.292-3.355-16.149-5.012l0,0c-2.059-0.576-4.21-1.153-6.309-1.688c-3.16-0.813-6.34-1.585-9.541-2.295
				l-0.319-0.072h-0.124h-0.062C300.55-9.24,221.782,2.792,154.881,41.1H92.632c-17.055,0.052-30.836,13.915-30.795,30.97
				c0.031,12.485,7.575,23.714,19.123,28.469c-12.372,13.483-23.518,28.037-33.317,43.496l-0.113,0.185
				c-4.518,7.205-8.8,14.605-12.794,22.273c-12.094,23.302-21.172,48.066-27.007,73.673c-1.153,5.146-2.141,10.292-3.036,15.367
				c-0.288,1.647-0.535,3.294-0.793,4.94c-0.298,1.894-0.648,3.798-0.906,5.681c0,0.175,0,0.34,0,0.515
				C1.04,280.595,0.041,294.644,0,308.704c0,7.349,0.35,15.161,1.029,23.673c-0.638,2.347-0.988,4.765-1.029,7.205
				C0.103,344.079,1.194,348.504,3.201,352.529z M27.254,370.242c1.204,0.144,2.408,0.216,3.623,0.216h47.85l44.782,35.818v67.107
				H82.34c-1.595,0-3.201,0.134-4.776,0.391c-0.556,0.082-1.091,0.257-1.636,0.381c-0.906,0.165-1.801,0.371-2.686,0.618
				C51.081,443.349,35.447,407.81,27.254,370.242z M123.509,308.704H92.632v-30.877h56.814l38.082,47.603
				c1.956,2.439,4.91,3.86,8.028,3.86h30.877v58.461l-49.548,69.361c-1.245,1.75-1.914,3.839-1.914,5.98v10.292h-30.877v-72.047
				c0-3.129-1.42-6.083-3.86-8.038l-28.551-22.839h11.826c17.055,0,30.877-13.823,30.877-30.877S140.564,308.704,123.509,308.704z
				 M82.34,514.552c-5.681,0-10.292-4.611-10.292-10.292c0.103-5.64,4.652-10.19,10.292-10.292h144.094
				c5.681,0,10.292,4.611,10.292,10.292c0,5.681-4.611,10.292-10.292,10.292H82.34z M427.136,566.015h-77.193
				c-8.522,0-15.439-6.917-15.439-15.439c0-8.522,6.917-15.439,15.439-15.439h77.193c8.522,0,15.439,6.917,15.439,15.439
				C442.575,559.098,435.659,566.015,427.136,566.015z M566.084,463.09H303.627c-8.522,0-15.439-6.917-15.439-15.439
				c0-8.522,6.917-15.439,15.439-15.439h262.457c3.582,0.031,7.04,1.317,9.768,3.633l0,0c6.587,5.321,7.606,14.965,2.285,21.552
				C575.203,461.042,570.757,463.131,566.084,463.09z M423.133,216.072h96.636c8.522,0,15.439,6.917,15.439,15.439
				c0,8.522-6.917,15.439-15.439,15.439H241.872c-8.522,0-15.439-6.917-15.439-15.439c0-8.522,6.917-15.439,15.439-15.439H423.133z
				 M288.188,195.487v-20.585h97.891l16.005,20.585H288.188z M486.596,267.534l-32.37,56.608c-0.895,1.564-1.369,3.345-1.359,5.146
				v37.557l-35.818,44.782h-25.937V298.411c0-5.681-4.611-10.292-10.292-10.292h-56.248l-13.74-20.585
				C310.832,267.534,486.596,267.534,486.596,267.534z M596.653,321.055c-0.165,0.659-0.391,1.307-0.69,1.925
				c-0.165,0.463-0.35,0.926-0.566,1.369c-0.391,0.576-0.834,1.112-1.328,1.595c-0.288,0.36-0.587,0.71-0.916,1.029
				c-0.607,0.463-1.266,0.854-1.966,1.163c-0.329,0.206-0.679,0.401-1.029,0.566c-1.122,0.401-2.306,0.597-3.489,0.587h-51.462
				c-5.681,0-10.292-4.611-10.292-10.292c0-5.681,4.611-10.292,10.292-10.292h51.462c1.256,0,2.501,0.237,3.664,0.69
				c0.381,0.154,0.679,0.443,1.029,0.628c0.731,0.34,1.42,0.762,2.058,1.266c0.329,0.35,0.628,0.731,0.906,1.122
				c0.494,0.535,0.937,1.112,1.317,1.739c0.412,1.173,0.782,2.367,1.112,3.571L596.653,321.055z M569.707,186.481
				c15.212,32.442,24.239,67.436,26.616,103.182c-0.823-0.278-1.688-0.422-2.542-0.628c-0.566-0.134-1.112-0.309-1.698-0.412
				c-1.791-0.329-3.602-0.494-5.414-0.504h-51.462c-17.055,0-30.877,13.823-30.877,30.877s13.823,30.877,30.877,30.877h51.462
				c2.264-0.021,4.518-0.298,6.721-0.823c0.237-0.051,0.504,0,0.751-0.082c-3.077,22.077-8.749,43.712-16.869,64.472
				c-1.029-0.36-2.182-0.556-3.283-0.813c-0.659-0.154-1.297-0.371-1.956-0.484c-1.966-0.34-3.952-0.504-5.949-0.515H443.409
				l27.79-34.737c1.462-1.822,2.254-4.096,2.254-6.433v-38.432l36.847-64.492h9.469c19.813,0.082,35.941-15.902,36.024-35.715
				c0.01-2.398-0.216-4.796-0.69-7.153c-0.144-0.731-0.391-1.41-0.576-2.12c-0.35-1.451-0.803-2.882-1.338-4.282
				c-0.309-0.793-0.7-1.544-1.029-2.306c-0.587-1.225-1.225-2.419-1.935-3.571c-0.473-0.731-0.967-1.431-1.482-2.131
				c-0.401-0.535-0.71-1.122-1.132-1.637L569.707,186.481z M376.899,28.749c3.324,0.813,6.711,1.698,10.292,2.717
				c4.889,1.379,9.726,2.882,15.037,4.683c29.395,10.076,56.969,24.856,81.619,43.774l0.381,0.288
				c3.901,3.005,7.719,6.093,11.466,9.263l0.947,0.813c3.499,3.016,6.927,6.124,10.292,9.335l1.173,1.112
				c3.294,3.16,6.515,6.392,9.654,9.706l1.029,1.112c3.273,3.489,6.464,7.05,10.015,11.219c0.926,1.091,1.709,2.306,2.625,3.417
				c10.612,12.845,20.081,26.585,28.304,41.077l-28.15,28.222h-32.4l-58.667-78.223c-1.945-2.594-4.992-4.117-8.234-4.117H298.481
				v-41.17h30.877c2.727,0,5.352-1.081,7.277-3.016L376.899,28.749z M352.609,23.932l-27.512,27.46h-36.909
				c-5.681,0-10.292,4.611-10.292,10.292v61.755c0,5.681,4.611,10.292,10.292,10.292h138.948l46.316,61.755h-45.287l-28.922-37.197
				c-1.956-2.511-4.951-3.973-8.131-3.973H277.896c-5.681,0-10.292,4.611-10.292,10.292v30.877h-25.731
				c-19.895,0-36.024,16.128-36.024,36.024s16.128,36.024,36.024,36.024h44.257l24.393,36.59c1.904,2.851,5.105,4.57,8.543,4.58
				h51.462v102.924h-66.901c-19.895,0-36.024,16.128-36.024,36.024c0,19.895,16.128,36.024,36.024,36.024h234.102
				c-20.626,27.028-45.873,50.196-74.569,68.434c0-0.504,0-1.029,0-1.534c0-19.895-16.128-36.024-36.024-36.024h-77.193
				c-19.895,0-36.024,16.128-36.024,36.024c0,19.895,16.128,36.024,36.024,36.024h35.324
				c-88.247,24.228-182.763,5.136-254.676-51.462h95.843c17.055,0,30.877-13.823,30.877-30.877s-13.823-30.877-30.877-30.877
				h-30.877v-6.999l49.548-69.361c1.245-1.739,1.914-3.829,1.914-5.98v-72.047c0-5.681-4.611-10.292-10.292-10.292h-36.229
				l-38.082-47.603c-1.956-2.439-4.91-3.86-8.028-3.86H92.632v-30.877h30.877c3.901,0,7.472-2.203,9.212-5.692l41.17-82.34
				c0.71-1.431,1.081-3.005,1.081-4.601v-30.877h51.462c17.055,0,30.877-13.823,30.877-30.877S243.488,41.1,226.434,41.1h-24.62
				c47.829-19.072,99.888-25.011,150.795-17.219V23.932z M92.632,61.685h133.802c5.681,0,10.292,4.611,10.292,10.292
				s-4.611,10.292-10.292,10.292l-122.871-0.422l0,0c-0.916,0.01-1.822,0.154-2.697,0.422h-8.234
				c-5.681,0-10.292-4.611-10.292-10.292S86.951,61.685,92.632,61.685z M27.944,244.119c5.434-23.734,13.885-46.687,25.124-68.29
				c3.685-7.081,7.719-14.09,11.97-20.822l0.103-0.154c11.98-18.897,26.102-36.353,42.096-51.997h47.15v28.448l-37.238,74.476H82.34
				c-5.681,0-10.292,4.611-10.292,10.292v41.17H25.258C26.03,252.97,26.925,248.606,27.944,244.119z M22.273,277.826h49.774v30.877
				h-41.17c-1.729,0-3.448,0.144-5.146,0.443c-0.576,0.093-1.122,0.278-1.688,0.401c-1.029,0.247-2.131,0.484-3.16,0.834
				l-0.298,0.082v-1.76C20.585,298.391,21.151,288.088,22.273,277.826z M21.182,336.493c1.307-4.261,5.239-7.184,9.695-7.205h92.632
				c5.681,0,10.292,4.611,10.292,10.292c0,5.681-4.611,10.292-10.292,10.292H30.877c-0.895,0-1.781-0.124-2.645-0.35
				c-1.709-0.463-3.263-1.369-4.498-2.625c-0.648-0.638-1.204-1.369-1.657-2.151c-1.606-2.47-1.935-5.548-0.895-8.306V336.493z"/>
		</g>
	</g>
</g>
<g>
</g>
<g>
</g>
<g>
</g>
<g>
</g>
<g>
</g>
<g>
</g>
<g>
</g>
<g>
</g>
<g>
</g>
<g>
</g>
<g>
</g>
<g>
</g>
<g>
</g>
<g>
</g>
<g>
</g>
</svg>
