<?xml version="1.0" encoding="iso-8859-1"?>
<!-- Generator: Adobe Illustrator 19.0.0, SVG Export Plug-In . SVG Version: 6.00 Build 0)  -->
<svg version="1.1" id="Layer_1" xmlns="http://www.w3.org/2000/svg" xmlns:xlink="http://www.w3.org/1999/xlink" x="0px" y="0px"
	 viewBox="0 0 512.001 512.001" style="enable-background:new 0 0 512.001 512.001;" xml:space="preserve">
<g>
	<path style="fill:#BAC6CC;" d="M134.41,294.316c-3.604,0-6.944-2.324-8.069-5.948L83.036,148.823L39.731,288.368
		c-1.384,4.457-6.117,6.949-10.576,5.566c-4.457-1.384-6.95-6.118-5.566-10.576l51.376-165.553c1.097-3.536,4.368-5.946,8.071-5.946
		c3.702,0,6.973,2.41,8.071,5.946l51.376,165.553c1.384,4.457-1.109,9.192-5.566,10.576
		C136.083,294.194,135.239,294.316,134.41,294.316z"/>
	<path style="fill:#BAC6CC;" d="M480.339,294.316c-3.604,0-6.944-2.324-8.069-5.948l-43.306-139.546l-43.305,139.546
		c-1.384,4.457-6.117,6.95-10.576,5.566c-4.457-1.384-6.95-6.118-5.566-10.576l51.376-165.553c1.097-3.536,4.368-5.946,8.071-5.946
		s6.973,2.41,8.071,5.946l51.377,165.553c1.384,4.457-1.109,9.192-5.566,10.576C482.011,294.194,481.167,294.316,480.339,294.316z"
		/>
</g>
<path style="fill:#4EBFED;" d="M230.056,142.178v255.06c0,23.805-19.307,43.111-43.111,43.111h-28.28
	c-15.674,0-28.384,12.71-28.384,28.384v23.505h99.775h51.889h99.775v-23.505c0-15.674-12.71-28.384-28.384-28.384h-28.28
	c-23.805,0-43.111-19.307-43.111-43.111v-255.06V69.034V45.712c0-14.324-11.614-25.95-25.939-25.95
	c-7.174,0-13.655,2.906-18.35,7.601c-4.694,4.705-7.601,11.187-7.601,18.35v23.32"/>
<g>
	<path style="fill:#3BA4BC;" d="M246.198,397.239v-255.06V69.034V45.712c0-7.163,2.906-13.644,7.601-18.35
		c2.847-2.847,6.356-5.031,10.274-6.313c-2.54-0.832-5.249-1.287-8.067-1.287c-7.174,0-13.655,2.907-18.349,7.601
		c-4.694,4.705-7.601,11.187-7.601,18.35v23.32v73.145v255.06c0,23.805-19.307,43.111-43.111,43.111h16.143
		C226.892,440.35,246.198,421.043,246.198,397.239z"/>
	<path style="fill:#3BA4BC;" d="M174.807,440.35h-16.143c-15.674,0-28.384,12.71-28.384,28.384v23.505h16.143v-23.505
		C146.423,453.06,159.133,440.35,174.807,440.35z"/>
</g>
<path style="fill:#4EBFED;" d="M213.631,90.9H43.226c-8.122,0-14.705,6.584-14.705,14.705l0,0c0,8.122,6.584,14.705,14.705,14.705
	h170.406h84.735h170.417c8.122,0,14.705-6.584,14.705-14.705l0,0c0-8.122-6.584-14.705-14.705-14.705H298.368"/>
<path style="fill:#3BA4BC;" d="M468.784,112.423H298.368h-84.735H43.226c-6.754,0-12.429-4.558-14.154-10.762
	c-0.349,1.256-0.551,2.576-0.551,3.944c0,8.122,6.584,14.705,14.705,14.705h170.406h84.735h170.417
	c8.122,0,14.705-6.584,14.705-14.705c0-1.368-0.201-2.687-0.551-3.944C481.213,107.866,475.538,112.423,468.784,112.423z"/>
<circle style="fill:#FCD577;" cx="255.995" cy="105.61" r="44.833"/>
<circle style="fill:#3BA4BC;" cx="255.995" cy="105.61" r="15.499"/>
<path style="fill:#FCD577;" d="M0,280.23c0,45.859,37.177,83.036,83.036,83.036s83.036-37.177,83.036-83.036H0z"/>
<path style="fill:#EAC36E;" d="M24.505,280.23H0c0,45.859,37.177,83.036,83.036,83.036c4.163,0,8.253-0.315,12.252-0.907
	C55.241,356.435,24.505,321.926,24.505,280.23z"/>
<path style="fill:#FCD577;" d="M345.929,280.23c0,45.859,37.177,83.036,83.036,83.036s83.036-37.177,83.036-83.036H345.929z"/>
<path style="fill:#EAC36E;" d="M370.434,280.23h-24.505c0,45.859,37.177,83.036,83.036,83.036c4.163,0,8.253-0.315,12.252-0.907
	C401.168,356.435,370.434,321.926,370.434,280.23z"/>
<g>
</g>
<g>
</g>
<g>
</g>
<g>
</g>
<g>
</g>
<g>
</g>
<g>
</g>
<g>
</g>
<g>
</g>
<g>
</g>
<g>
</g>
<g>
</g>
<g>
</g>
<g>
</g>
<g>
</g>
</svg>
