<svg height="471pt" viewBox="0 -3 471.53793 471" width="471pt" xmlns="http://www.w3.org/2000/svg"><path d="m346.398438 105.070312c-3.121094-3.125-3.121094-8.1875 0-11.3125l11.320312-11.320312 5.65625-5.480469 11.3125 11.136719-5.65625 5.65625-11.289062 11.320312c-1.5 1.507813-3.542969 2.355469-5.671876 2.355469-2.128906 0-4.171874-.847656-5.671874-2.355469zm0 0" fill="#277baa"/><path d="m346.445312 48.445312 11.316407-11.3125 18.285156 18.289063-11.3125 11.3125zm0 0" fill="#277baa"/><path d="m403 105.035156-16.96875-16.964844-2.855469-13.152343 14.167969 1.839843 16.964844 16.96875zm0 0" fill="#277baa"/><path d="m2.484375 445.019531 2.695313-15.765625 59.261718 10.140625-2.699218 15.765625zm0 0" fill="#fbb540"/><path d="m77.847656 393.203125-64.554687-11.261719 2.707031-15.769531 64.550781 11.265625zm0 0" fill="#fbb540"/><path d="m82.6875 450.652344-18.472656 13.066406-32.894532 2.476562 21.175782-28.839843zm0 0" fill="#ea6b65"/><path d="m93.496094 387.566406-13.074219-18.472656-30.183594-13.289062 10.359375 34.25zm0 0" fill="#ea6b65"/><path d="m423.796875 347.8125c-1.175781 0-2.199219 0-3.007813 0l.378907-16c12.75.273438 15.488281-2.335938 15.503906-2.398438 1.109375-11.6875-62.160156-61.714843-192.753906-118.503906l6.402343-14.671875c8.980469 3.902344 219.863282 96.199219 200.941407 139.71875-4.703125 10.792969-19.589844 11.855469-27.464844 11.855469zm0 0" fill="#fbb540"/><path d="m121.167969 165.171875c-69.753907-20.902344-92.921875-17.070313-95.53125-14.070313l-14.574219-6.570312c2.777344-6.398438 11.199219-25.742188 114.703125 5.3125zm0 0" fill="#fbb540"/><path d="m383.199219 240.269531c0 83.945313-68.054688 152-152 152-83.949219 0-152-68.054687-152-152 0-83.949219 68.050781-152 152-152 83.945312 0 152 68.050781 152 152zm0 0" fill="#3bd6d0"/><path d="m52.496094 437.355469 8.101562-47.300781 7.144532-1.53125c22.253906-4.765626 45.480468.214843 63.824218 13.679687l-8.105468 47.3125c-21.777344 6.59375-45.335938 3.5625-64.734376-8.335937zm0 0" fill="#ebebeb"/><path d="m149.550781 439.382812c3.664063-1.429687 6.3125-4.671874 6.976563-8.550781.664062-3.875-.753906-7.816406-3.738282-10.378906l-21.222656-18.25-8.105468 47.3125zm0 0" fill="#ea6b65"/><path d="m94.617188 428.34375 2.703124-15.761719 15.769532 2.703125-2.703125 15.761719zm0 0" fill="#6cbae5"/><path d="m31.542969 417.53125 2.699219-15.761719 23.65625 4.054688-2.703126 15.761719zm0 0" fill="#fbb540"/><path d="m0 412.132812 2.703125-15.761718 15.769531 2.703125-2.703125 15.761719zm0 0" fill="#fbb540"/><path d="m352.082031 76.757812 33.941407-33.941406 22.628906 22.625-33.941406 33.941406zm0 0" fill="#6cbae5"/><path d="m318.148438 31.5 22.628906-22.625 22.628906 22.625-22.628906 22.628906zm0 0" fill="#6cbae5"/><path d="m397.335938 110.695312 22.628906-22.628906 22.625 22.628906-22.625 22.625zm0 0" fill="#6cbae5"/><path d="m408.65625 65.4375-22.625-22.625 16.96875-28.289062 33.941406 33.945312zm0 0" fill="#4799cf"/><path d="m383.199219 240.269531c-.003907-28.289062-7.945313-56.007812-22.929688-80h-81.070312c-13.253907 0-24 10.746094-24 24 0 13.253907 10.746093 24 24 24h32c-13.253907 0-24 10.746094-24 24 0 13.253907 10.746093 24 24 24h71.144531c.5625-5.316406.847656-10.65625.855469-16zm0 0" fill="#38c1b4"/><path d="m263.199219 352.269531c-9.324219-.046875-17.820313 5.332031-21.761719 13.78125s-2.605469 18.417969 3.417969 25.53125c33.132812-2.972656 64.363281-16.792969 88.847656-39.3125zm0 0" fill="#38c1b4"/><path d="m220.246094 88.820312c-58.136719 4.191407-108.75 41.277344-130.261719 95.449219h77.214844c13.253906 0 24-10.746093 24-24 0-13.253906-10.746094-24-24-24h48c12.246093-.035156 22.5-9.285156 23.796875-21.460937 1.292968-12.175782-6.785156-23.375-18.75-25.988282zm0 0" fill="#38c1b4"/><path d="m183.199219 264.269531h-101.929688c6.070313 38.0625 26.402344 72.386719 56.863281 96h13.066407c13.253906 0 24-10.746093 24-24 0-13.253906-10.746094-24-24-24h32c13.253906 0 24-10.746093 24-24 0-13.253906-10.746094-24-24-24zm0 0" fill="#38c1b4"/><path d="m367.199219 400.269531h16v16h-16zm0 0" fill="#ea6b65"/><g fill="#fbedbf"><path d="m234.957031 16.269531c5.351563.085938 10.792969.375 16.175781.839844l1.402344-15.9375c-5.761718-.503906-11.585937-.800781-17.3125-.902344zm0 0"/><path d="m133.949219 20.789062 6.480469 14.632813c4.953124-2.199219 10.015624-4.226563 15.039062-6.023437l-5.414062-15.066407c-5.375 1.9375-10.800782 4.105469-16.105469 6.457031zm0 0"/><path d="m183.46875 5.019531 3.203125 15.6875c5.222656-1.0625 10.597656-1.941406 16-2.621093l-2.027344-15.882813c-5.796875.738281-11.566406 1.683594-17.175781 2.816406zm0 0"/><path d="m283.078125 22.300781c5.191406 1.230469 10.449219 2.6875 15.617187 4.3125l4.800782-15.265625c-5.539063-1.742187-11.160156-3.285156-16.730469-4.605468zm0 0"/><path d="m463.636719 180.269531-15.496094 4c1.347656 5.222657 2.515625 10.542969 3.464844 15.816407l15.746093-2.847657c-1.023437-5.648437-2.273437-11.371093-3.714843-16.96875zm0 0"/><path d="m451.878906 140.269531-15.496094 4c1.34375 5.222657 2.511719 10.542969 3.464844 15.816407l15.742188-2.847657c-1.023438-5.648437-2.269532-11.371093-3.710938-16.96875zm0 0"/><path d="m454.859375 239.914062.695313-15.984374 15.984374.695312-.695312 15.984375zm0 0"/></g><path d="m343.199219 424.269531h16v16h-16zm0 0" fill="#ea6b65"/><path d="m391.199219 424.269531h16v16h-16zm0 0" fill="#ea6b65"/><path d="m367.199219 448.269531h16v16h-16zm0 0" fill="#ea6b65"/><path d="m420.796875 347.773438c-40.238281-.929688-122.191406-25.847657-208.796875-63.503907-8.96875-3.90625-219.859375-96.199219-200.9375-139.730469l14.671875 6.402344c-1.207031 11.863282 62.070313 61.886719 192.65625 118.679688 84.847656 36.886718 164.441406 61.296875 202.777344 62.175781zm0 0" fill="#fbb540"/><path d="m55.382812 143.742188c0 13.253906-10.746093 24-24 24-13.253906 0-24-10.746094-24-24 0-13.257813 10.746094-24 24-24 13.253907 0 24 10.742187 24 24zm0 0" fill="#6cbae5"/></svg>