<svg height="512pt" viewBox="0 0 512 512.00168" width="512pt" xmlns="http://www.w3.org/2000/svg"><path d="m304.933594 10c20.351562 28.933594 55.570312 43.519531 90.414062 37.453125 7.730469 34.515625 34.683594 61.472656 69.203125 69.199219-6.070312 34.847656 8.519531 70.066406 37.449219 90.414062-18.941406 29.875-18.941406 67.996094 0 97.867188-28.929688 20.347656-43.519531 55.566406-37.449219 90.414062-34.519531 7.726563-61.472656 34.683594-69.203125 69.199219-34.84375-6.066406-70.0625 8.519531-90.414062 37.453125-29.871094-18.941406-67.992188-18.941406-97.863282 0-20.347656-28.933594-55.570312-43.519531-90.414062-37.453125-7.730469-34.515625-34.683594-61.472656-69.203125-69.199219 6.070313-34.847656-8.519531-70.066406-37.449219-90.414062 18.941406-29.871094 18.941406-67.992188 0-97.867188 28.929688-20.347656 43.519532-55.566406 37.449219-90.414062 34.519531-7.726563 61.472656-34.683594 69.203125-69.199219 34.84375 6.066406 70.066406-8.519531 90.414062-37.453125 29.871094 18.945312 67.992188 18.945312 97.863282 0zm0 0" fill="#ffcb7c"/><path d="m429.070312 256c0 95.582031-77.484374 173.066406-173.066406 173.066406-95.582031 0-173.070312-77.484375-173.070312-173.066406s77.488281-173.066406 173.070312-173.066406c95.582032 0 173.066406 77.484375 173.066406 173.066406zm0 0" fill="#ffd89e"/><g fill="#ffcb7c"><path d="m256.003906 159.019531c0 10.851563-8.800781 19.652344-19.652344 19.652344-10.851562 0-19.652343-8.800781-19.652343-19.652344 0-10.851562 8.800781-19.652343 19.652343-19.652343 10.851563 0 19.652344 8.800781 19.652344 19.652343zm0 0"/><path d="m378.65625 288.828125c0 15.996094-12.964844 28.960937-28.957031 28.960937-15.992188 0-28.957031-12.964843-28.957031-28.960937 0-15.992187 12.964843-28.957031 28.957031-28.957031 15.992187 0 28.957031 12.964844 28.957031 28.957031zm0 0"/><path d="m228.097656 349.429688c0 28.09375-22.773437 50.867187-50.867187 50.867187s-50.867188-22.773437-50.867188-50.867187 22.773438-50.867188 50.867188-50.867188 50.867187 22.773438 50.867187 50.867188zm0 0"/></g><path d="m510.445312 212.425781c2.859376-4.511719 1.675782-10.46875-2.691406-13.535156-25.636718-18.035156-38.730468-49.640625-33.351562-80.519531.914062-5.261719-2.457032-10.308594-7.667969-11.476563-30.585937-6.847656-54.777344-31.039062-61.628906-61.628906-1.164063-5.207031-6.207031-8.578125-11.472657-7.664063-30.878906 5.375-62.488281-7.714843-80.519531-33.355468-3.070312-4.363282-9.027343-5.546875-13.535156-2.691406-26.472656 16.789062-60.683594 16.789062-87.152344 0-4.507812-2.855469-10.464843-1.671876-13.535156 2.691406-18.035156 25.640625-49.644531 38.730468-80.519531 33.355468-5.261719-.925781-10.308594 2.457032-11.476563 7.664063-6.847656 30.589844-31.039062 54.78125-61.625 61.628906-5.210937 1.167969-8.585937 6.214844-7.667969 11.476563 5.378907 30.878906-7.714843 62.484375-33.351562 80.519531-4.367188 3.066406-5.550781 9.023437-2.695312 13.535156 16.789062 26.46875 16.789062 60.679688 0 87.152344-2.855469 4.507813-1.671876 10.464844 2.695312 13.535156 25.636719 18.03125 38.726562 49.640625 33.351562 80.519531-.917968 5.257813 2.457032 10.308594 7.667969 11.472657 30.585938 6.851562 54.777344 31.039062 61.625 61.628906 1.167969 5.207031 6.214844 8.582031 11.476563 7.667969 30.878906-5.378906 62.484375 7.710937 80.519531 33.351562 3.070313 4.363282 9.027344 5.546875 13.535156 2.691406 26.472657-16.785156 60.683594-16.785156 87.152344 0 1.660156 1.050782 3.511719 1.554688 5.347656 1.554688 3.152344 0 6.246094-1.488281 8.1875-4.246094 18.03125-25.640625 49.640625-38.730468 80.519531-33.351562 5.261719.925781 10.308594-2.460938 11.472657-7.667969 6.851562-30.589844 31.042969-54.777344 61.628906-61.628906 5.207031-1.164063 8.582031-6.214844 7.667969-11.472657-5.378906-30.878906 7.714844-62.488281 33.351562-80.519531 4.367188-3.070312 5.550782-9.027343 2.691406-13.535156-16.785156-26.472656-16.785156-60.683594 0-87.152344zm-21.429687 89.925781c-24.8125 21.082032-38.113281 53.1875-35.472656 85.640626-30.992188 9.980468-55.566407 34.558593-65.550781 65.550781-32.453126-2.636719-64.558594 10.660156-85.640626 35.472656-14.488281-7.429687-30.417968-11.144531-46.351562-11.144531-15.929688 0-31.863281 3.714844-46.347656 11.144531-21.082032-24.8125-53.1875-38.121094-85.644532-35.472656-9.980468-30.992188-34.554687-55.566407-65.546874-65.550781 2.636718-32.453126-10.660157-64.558594-35.472657-85.640626 14.855469-28.976562 14.855469-63.726562 0-92.699218 24.8125-21.082032 38.109375-53.1875 35.472657-85.644532 30.992187-9.980468 55.566406-34.554687 65.546874-65.546874 32.460938 2.640624 64.5625-10.660157 85.644532-35.476563 28.972656 14.859375 63.726562 14.859375 92.699218 0 19.316407 22.738281 47.882813 35.808594 77.496094 35.804687 2.710938 0 5.425782-.105468 8.144532-.328124 9.984374 30.992187 34.558593 55.566406 65.550781 65.546874-2.640625 32.453126 10.660156 64.5625 35.472656 85.644532-14.855469 28.972656-14.855469 63.722656 0 92.699218zm0 0"/><path d="m206.703125 159.019531c0 16.351563 13.300781 29.652344 29.648437 29.652344 16.351563 0 29.652344-13.304687 29.652344-29.652344 0-16.347656-13.300781-29.648437-29.652344-29.648437-16.347656 0-29.648437 13.300781-29.648437 29.648437zm39.300781 0c0 5.320313-4.332031 9.652344-9.652344 9.652344-5.320312 0-9.648437-4.332031-9.648437-9.652344 0-5.320312 4.328125-9.648437 9.648437-9.648437 5.320313 0 9.652344 4.328125 9.652344 9.648437zm0 0"/><path d="m388.65625 288.828125c0-21.480469-17.476562-38.957031-38.957031-38.957031s-38.957031 17.476562-38.957031 38.957031 17.476562 38.960937 38.957031 38.960937 38.957031-17.476562 38.957031-38.960937zm-38.957031 18.960937c-10.453125 0-18.960938-8.507812-18.960938-18.960937s8.507813-18.957031 18.960938-18.957031 18.957031 8.503906 18.957031 18.957031-8.503906 18.960937-18.957031 18.960937zm0 0"/><path d="m351.472656 198.882812c2.363282 3.511719 6.808594 5.203126 10.90625 4.097657s7.097656-4.761719 7.390625-8.996094c.289063-4.160156-2.1875-8.175781-6.007812-9.820313-3.621094-1.558593-7.933594-.824218-10.820313 1.882813-3.515625 3.300781-4.144531 8.820313-1.46875 12.835937zm0 0"/><path d="m170.414062 225.0625c-2.261718-3.457031-6.636718-5.125-10.628906-4.164062-3.992187.957031-7.058594 4.332031-7.597656 8.410156-.558594 4.195312 1.699219 8.398437 5.492188 10.273437 3.695312 1.824219 8.265624 1.132813 11.265624-1.679687 3.523438-3.300782 4.140626-8.832032 1.46875-12.839844zm0 0"/><path d="m256.003906 72.933594c-100.945312 0-183.070312 82.125-183.070312 183.066406 0 54.523438 23.96875 103.542969 61.910156 137.109375.007812.011719.015625.019531.023438.027344.105468.101562.21875.1875.324218.285156 32.261719 28.394531 74.558594 45.648437 120.8125 45.648437 19.523438 0 38.769532-3.074218 57.199219-9.132812 5.25-1.722656 8.101563-7.375 6.378906-12.621094-1.726562-5.246094-7.378906-8.101562-12.625-6.378906-16.410156 5.398438-33.554687 8.132812-50.957031 8.132812-41.066406 0-78.628906-15.265624-107.328125-40.414062-7.9375-7.753906-12.308594-18.125-12.308594-29.226562 0-22.535157 18.332031-40.867188 40.867188-40.867188 22.535156 0 40.867187 18.332031 40.867187 40.867188 0 10.519531-3.988281 20.511718-11.230468 28.136718-3.800782 4.003906-3.636719 10.332032.367187 14.136719s10.335937 3.640625 14.136719-.363281c10.785156-11.359375 16.726562-26.242188 16.726562-41.910156 0-33.5625-27.304687-60.867188-60.867187-60.867188-30.734375 0-56.203125 22.898438-60.28125 52.527344-15.226563-24.785156-24.015625-53.929688-24.015625-85.089844 0-89.914062 73.152344-163.066406 163.066406-163.066406 89.917969 0 163.070312 73.152344 163.070312 163.066406 0 44.039062-17.292968 85.308594-48.695312 116.21875-3.9375 3.871094-3.984375 10.203125-.113281 14.140625 3.875 3.9375 10.207031 3.988281 14.144531.113281 35.25-34.699218 54.664062-81.03125 54.664062-130.472656 0-100.941406-82.125-183.066406-183.066406-183.066406zm0 0"/></svg>