<?xml version="1.0" encoding="utf-8"?>
<!-- Generator: Adobe Illustrator 19.0.0, SVG Export Plug-In . SVG Version: 6.00 Build 0)  -->
<svg version="1.1" id="Capa_1" xmlns="http://www.w3.org/2000/svg" xmlns:xlink="http://www.w3.org/1999/xlink" x="0px" y="0px"
	 viewBox="11 112.5 617.4 617.4" style="enable-background:new 11 112.5 617.4 617.4;" xml:space="preserve">
<style type="text/css">
	.st0{fill:#FFAA00;}
	.st1{fill:#FD7C07;}
	.st2{opacity:0.56;fill:#FBB86A;}
</style>
<g>
	<path class="st0" d="M81.1,451.6c18.2,11.5,39.4,17.2,60.9,16.4c38.6,0,67.5-15.7,67.5-29.7c0-3.4-4.4-8.8-14.1-13.4
		c-28-13.2-62.4-10-73.8-2c-1,0.7-1.9,1.6-2.6,2.6c10.4,6.4,23.3,7.3,34.4,2.4l9.2,18.4c-16.4,7.5-35.5,7-51.5-1.4
		c-6.9-2.9-11.8-9.2-12.9-16.6c-0.6-9,3.9-17.5,11.5-22.2c13-7.7,28-11.4,43.1-10.7c2,0,4.1,0,6.1,0.1c22.2,0,44.2,3.6,65.3,10.6
		c38.3,12.7,79.7,12.7,118.1,0c10.9-3.6,35.3-14.3,59.4-23.8c30.8-12.1,64.5-15.3,97-9L606.7,394c-1.1-11.6-2.9-23.2-5.4-34.6H351.8
		c-20.1,0-40,3.2-59,9.6c-42.6,14.1-88.5,14.1-131.1,0c-19-6.4-39-9.6-59-9.6H38.4c-3.7,16.9-5.9,34.2-6.5,51.5v16.3
		c13.4,1.2,26.2,6.4,36.7,14.9L81.1,451.6z"/>
	<path class="st1" d="M168.2,349.4c38.3,12.7,79.7,12.7,118.1,0c21.1-7,43.3-10.7,65.6-10.6H596c-5.3-17.8-12.4-35-21-51.5H350.7
		c-11.6-0.3-22.8,3.5-31.8,10.9l-12.5,9.6c-21.7,14.4-47.4,21.6-73.5,20.6c-50.2,0-88.1-21.6-88.1-50.3c0-12.6,9.4-24.3,25.9-32
		c16.1-7.2,33.6-10.9,51.3-10.9c15.1-0.7,30.1,3,43.1,10.7c7.7,4.7,12.1,13.3,11.5,22.2c-1.1,7.4-6,13.7-12.9,16.6
		c-16,8.4-35,9-51.5,1.4l9.2-18.4c11.2,4.9,24,4,34.4-2.4c-0.7-1-1.6-1.9-2.6-2.6c-11.4-8-45.8-11.2-73.8,2
		c-9.7,4.6-14.1,10-14.1,13.4c0,14,28.9,29.7,67.5,29.7c21.5,0.9,42.8-4.8,60.9-16.4l12.5-9.6c12.5-10.1,28.2-15.5,44.3-15.2H563
		c-9.3-14.6-19.9-28.4-31.7-41.2H351.8c-22.3,0-44.4-3.6-65.6-10.6c-38.3-12.7-79.7-12.7-118.1,0c-19.2,6.4-39.3,9.9-59.5,10.4
		c-30.1,32.3-52.3,71.2-64.9,113.5h58.9C124.9,338.7,147,342.3,168.2,349.4z"/>
	<path class="st0" d="M292.8,195.4c19,6.3,39,9.6,59,9.6h158.3c-52.5-46.5-120.2-72.1-190.3-72c-68.9,0-135.4,24.7-187.6,69.7
		c10-1.6,19.8-4,29.4-7.2C204.2,181.3,250.2,181.3,292.8,195.4z"/>
	<path class="st0" d="M467.7,603.9c-16.4,5.5-33.4,8.9-50.6,10.1c7.8,6.7,12.1,14.8,12.1,23.2c0,28.7-37.9,50.3-88.1,50.3
		c-26,1-51.8-6.3-73.5-20.6l-12.5-9.6c-8.9-7.4-20.2-11.2-31.8-10.9v0c-3.4,0.3-6.8,0.4-10.2,0.4c-15.1,0.7-30.1-3-43.1-10.7
		c-7.7-4.7-12.1-13.3-11.5-22.2c1.1-7.4,6-13.7,12.9-16.6c16-8.4,35-9,51.5-1.4l-9.2,18.4c-11.2-4.9-24-4-34.4,2.4
		c0.7,1,1.6,1.9,2.6,2.6c11.4,8,45.8,11.2,73.8-2c9.7-4.6,14.1-10,14.1-13.4c0-14-28.9-29.7-67.5-29.7c-21.5-0.9-42.8,4.8-60.9,16.4
		l-12.5,9.6c-7.1,5.8-15.3,10-23.9,12.5c7.7,8.7,16,16.9,24.7,24.6l26.2,20.6c48.1,33.6,105.4,51.5,164.1,51.5
		c58.7,0.1,115.9-17.9,164.1-51.5l26.2-20.6c14.5-12.8,27.7-27,39.3-42.3C521.3,589.1,499.1,593.5,467.7,603.9z"/>
	<path class="st1" d="M330.3,548.3c-22.3,0-44.4-3.6-65.6-10.6c-38.3-12.7-79.7-12.7-118.1,0c-21.1,7-43.3,10.7-65.6,10.6l-19.7,0.1
		c1.1,2.2,2.2,4.3,3.3,6.5l12,20.6c4.2,6.6,8.6,12.9,13.3,19.1c9.6-0.8,18.7-4.5,26.2-10.7l12.5-9.6c21.7-14.4,47.4-21.6,73.5-20.6
		c50.2,0,88.1,21.6,88.1,50.3c0,12.6-9.4,24.3-25.9,32c-0.8,0.3-1.6,0.7-2.3,1c1.9,1.3,3.8,2.6,5.6,4.1l12.5,9.6
		c18.2,11.5,39.4,17.2,60.9,16.4c38.6,0,67.5-15.7,67.5-29.7c0-3.4-4.4-8.8-14.1-13.4c-28-13.2-62.4-10-73.8-2
		c-1,0.7-1.9,1.6-2.6,2.6c10.4,6.4,23.3,7.3,34.4,2.4l9.2,18.4c-16.4,7.5-35.5,7-51.5-1.4c-6.9-2.9-11.8-9.2-12.9-16.6
		c-0.6-9,3.9-17.5,11.5-22.2c13-7.7,28-11.4,43.1-10.7c1.2,0,2.3,0,3.5,0l-0.1-0.2l46.8-0.2c20.1,0,40-3.2,59-9.6
		c38-12.6,65.3-16.9,101-7.7c0.3-0.4,0.5-0.8,0.8-1.3l12-20.6c1.2-2.2,2.3-4.4,3.4-6.6H463H330.3z"/>
	<path class="st1" d="M500,393.9c-33-6.1-67-2.6-98.1,10.1c-22,9-43.6,18.6-53,21.7c-39.1,12.9-81.1,14-120.6,3.2
		c1.2,3,1.8,6.2,1.8,9.4c0,28.7-37.9,50.3-88.1,50.3c-26,1-51.8-6.3-73.5-20.6L56,458.3c-6.7-5.5-14.6-9-23.1-10.3
		c1.3,13.6,3.5,27.2,6.7,40.5l6,21.2c2,6.2,4.2,12.2,6.6,18.3l28.9-0.1c20.1,0,40-3.2,59-9.6c42.6-14.1,88.5-14.1,131.1,0
		c19,6.3,39,9.6,59,9.6H463h124.5c2.7-6.7,5.1-13.5,7.3-20.5l5.8-21.6c0.7-3.2,1.4-6.4,2-9.6h-12.6c-16.1,0.3-31.8-5-44.3-15.2
		l-12.5-9.6c-18.2-11.5-39.4-17.2-60.9-16.4c-38.6,0-67.5,15.7-67.5,29.7c0,3.4,4.4,8.8,14.1,13.4c28,13.2,62.4,10,73.8,2
		c1-0.7,1.9-1.6,2.6-2.6c-10.4-6.4-23.3-7.3-34.4-2.4l-9.2-18.4c16.4-7.5,35.5-7,51.5,1.4c6.9,2.9,11.8,9.2,12.9,16.6
		c0.6,9-3.9,17.5-11.5,22.2c-13,7.7-28,11.4-43.1,10.7c-17.7,0.1-35.1-3.6-51.3-10.9c-16.5-7.7-25.9-19.4-25.9-32
		c0-28.7,37.9-50.3,88.1-50.3c26-1,51.8,6.3,73.5,20.6l12.5,9.6c8.9,7.4,20.2,11.2,31.8,10.9h15.8c1-8,1.6-16,1.9-24.1v-17.5
		L500,393.9z"/>
	<path d="M473.3,153.5C325.5,68.6,136.9,119.7,52,267.6S18.2,604.1,166.1,688.9c46.8,26.9,99.8,41,153.7,40.9
		c91-0.1,214.6-63.3,267.2-154.4h0.4v-0.6C672.3,427,621.2,238.3,473.3,153.5z M322.2,720.5c-165.5,0-299.6-134.1-299.6-299.6
		s134.1-299.6,299.6-299.6s299.6,134.1,299.6,299.6S487.7,720.5,322.2,720.5z"/>
</g>
<path class="st2" d="M504.8,187.3c0,0.8,0.1,1.6,0.1,2.4c0,225.2-163.7,417-386.1,452.4c121.5,111.4,310.3,103.2,421.7-18.3
	S643.6,313.4,522.1,202C516.5,196.9,510.8,192,504.8,187.3z"/>
<path d="M473.3,153.5C325.5,68.6,136.9,119.7,52,267.6S18.2,604.1,166.1,688.9c46.8,26.9,99.8,41,153.7,40.9
	c91-0.1,214.6-63.3,267.2-154.4h0.4v-0.6C672.3,427,621.2,238.3,473.3,153.5z M319.8,132.9c70.1,0,137.8,25.6,190.3,72H351.8
	c-20.1,0-40-3.2-59-9.6c-42.6-14.1-88.5-14.1-131.1,0c-9.6,3.2-19.4,5.6-29.4,7.2C184.4,157.6,251,132.9,319.8,132.9z M108.6,225.3
	c20.2-0.5,40.3-4,59.5-10.4c38.3-12.7,79.7-12.7,118.1,0c21.1,7,43.3,10.7,65.6,10.6h179.5c11.8,12.7,22.4,26.5,31.7,41.2H350.7
	c-16.1-0.3-31.8,5-44.3,15.2l-12.5,9.6c-18.2,11.5-39.4,17.2-60.9,16.4c-38.6,0-67.5-15.7-67.5-29.7c0-3.4,4.4-8.8,14.1-13.4
	c28-13.2,62.4-10,73.8-2c1,0.7,1.9,1.6,2.6,2.6c-10.4,6.4-23.3,7.3-34.4,2.4l-9.2,18.4c16.4,7.5,35.5,7,51.5-1.4
	c6.9-2.9,11.8-9.2,12.9-16.6c0.6-9-3.9-17.5-11.5-22.2c-13-7.7-28-11.4-43.1-10.7c-17.7-0.1-35.1,3.6-51.3,10.9
	c-16.5,7.7-25.9,19.4-25.9,32c0,28.7,37.9,50.3,88.1,50.3c26,1,51.8-6.3,73.5-20.6l12.5-9.6c8.9-7.4,20.2-11.2,31.8-10.9H575
	c8.7,16.4,15.7,33.7,21,51.5H351.8c-22.3,0-44.4,3.6-65.6,10.6c-38.3,12.7-79.7,12.7-118.1,0c-21.1-7-43.3-10.7-65.6-10.6H43.7
	C56.4,296.5,78.6,257.6,108.6,225.3z M38.4,359.3h64.2c20.1,0,40,3.2,59,9.6c42.6,14.1,88.5,14.1,131.1,0c19-6.4,39-9.6,59-9.6
	h249.5c2.5,11.4,4.3,23,5.4,34.6l-107.8-20.6c-32.5-6.2-66.2-3.1-97,9c-24.2,9.5-48.5,20.2-59.4,23.8c-38.3,12.7-79.7,12.7-118.1,0
	c-21.1-7-43.1-10.6-65.3-10.6c-2-0.1-4.1-0.1-6.1-0.1c-15.1-0.7-30.1,3-43.1,10.7c-7.7,4.7-12.1,13.3-11.5,22.2
	c1.1,7.4,6,13.7,12.9,16.6c16,8.4,35,9,51.5,1.4l-9.2-18.4c-11.2,4.9-24,4-34.4-2.4c0.7-1,1.6-1.9,2.6-2.6c11.4-8,45.8-11.2,73.8,2
	c9.7,4.6,14.1,10,14.1,13.4c0,14-28.9,29.7-67.5,29.7c-21.5,0.9-42.8-4.8-60.9-16.4L68.6,442c-10.5-8.5-23.3-13.7-36.7-14.9v-16.3
	C32.5,393.5,34.7,376.3,38.4,359.3z M64.7,554.9c-1.1-2.1-2.2-4.3-3.3-6.5l19.7-0.1c22.3,0,44.4-3.6,65.6-10.6
	c38.3-12.7,79.7-12.7,118.1,0c21.1,7,43.3,10.7,65.6,10.6H463h115.3c-1.1,2.2-2.2,4.4-3.4,6.6l-12,20.6c-0.3,0.4-0.5,0.8-0.8,1.3
	c-35.7-9.2-63-4.9-101,7.7c-19,6.4-39,9.6-59,9.6l-46.8,0.2l0.1,0.2c-1.2,0-2.3,0-3.5,0c-15.1-0.7-30.1,3-43.1,10.7
	c-7.7,4.7-12.1,13.3-11.5,22.2c1.1,7.4,6,13.7,12.9,16.6c16,8.4,35,9,51.5,1.4l-9.2-18.4c-11.2,4.9-24,4-34.4-2.4
	c0.7-1,1.6-1.9,2.6-2.6c11.4-8,45.8-11.2,73.8,2c9.7,4.6,14.1,10,14.1,13.4c0,14-28.9,29.7-67.5,29.7c-21.5,0.9-42.8-4.8-60.9-16.4
	l-12.5-9.6c-1.8-1.5-3.7-2.8-5.6-4.1c0.8-0.3,1.6-0.7,2.3-1c16.5-7.7,25.9-19.4,25.9-32c0-28.7-37.9-50.3-88.1-50.3
	c-26-1-51.8,6.3-73.5,20.6l-12.5,9.6c-7.5,6.2-16.6,9.9-26.2,10.7c-4.7-6.2-9.1-12.6-13.3-19.1L64.7,554.9z M510.1,637.2l-26.2,20.6
	c-48.1,33.6-105.4,51.5-164.1,51.5c-58.7,0.1-115.9-17.9-164.1-51.5l-26.2-20.6c-8.7-7.7-17-15.9-24.7-24.6
	c8.7-2.5,16.8-6.7,23.9-12.5l12.5-9.6c18.2-11.5,39.4-17.2,60.9-16.4c38.6,0,67.5,15.7,67.5,29.7c0,3.4-4.4,8.8-14.1,13.4
	c-28,13.2-62.4,10-73.8,2c-1-0.7-1.9-1.6-2.6-2.6c10.4-6.4,23.3-7.3,34.4-2.4l9.2-18.4c-16.4-7.5-35.5-7-51.5,1.4
	c-6.9,2.9-11.8,9.2-12.9,16.6c-0.6,9,3.9,17.5,11.5,22.2c13,7.7,28,11.4,43.1,10.7c3.4,0,6.8-0.1,10.2-0.4v0
	c11.6-0.3,22.8,3.5,31.8,10.9l12.5,9.6c21.7,14.4,47.4,21.6,73.5,20.6c50.2,0,88.1-21.6,88.1-50.3c0-8.5-4.3-16.5-12.1-23.2
	c17.2-1.2,34.2-4.6,50.6-10.1c31.4-10.4,53.7-14.8,81.8-9C537.8,610.3,524.6,624.4,510.1,637.2z M594.8,507.3
	c-2.2,6.9-4.6,13.7-7.3,20.5H463H330.3c-20.1,0-40-3.2-59-9.6c-42.6-14.1-88.5-14.1-131.1,0c-19,6.3-39,9.6-59,9.6l-28.9,0.1
	c-2.4-6-4.6-12.1-6.6-18.3l-6-21.2c-3.2-13.3-5.4-26.9-6.7-40.5c8.4,1.3,16.4,4.8,23.1,10.3l12.5,9.6c21.7,14.4,47.4,21.6,73.5,20.6
	c50.2,0,88.1-21.6,88.1-50.3c0-3.2-0.6-6.4-1.8-9.4c39.6,10.8,81.5,9.8,120.6-3.2c9.4-3.1,31-12.7,53-21.7
	c31.1-12.7,65.1-16.2,98.1-10.1l107.7,19.9v17.5c-0.3,8-0.9,16.1-1.9,24.1h-15.8c-11.6,0.4-22.8-3.5-31.8-10.9l-12.5-9.6
	c-21.7-14.4-47.4-21.6-73.5-20.6c-50.2,0-88.1,21.6-88.1,50.3c0,12.6,9.4,24.3,25.9,32c16.1,7.2,33.6,10.9,51.3,10.9
	c15.1,0.7,30.1-3,43.1-10.7c7.7-4.7,12.1-13.3,11.5-22.2c-1.1-7.4-6-13.7-12.9-16.6c-16-8.4-35-9-51.5-1.4l9.2,18.4
	c11.2-4.9,24-4,34.4,2.4c-0.7,1-1.6,1.9-2.6,2.6c-11.4,8-45.8,11.2-73.8-2c-9.7-4.6-14.1-10-14.1-13.4c0-14,28.9-29.7,67.5-29.7
	c21.5-0.9,42.8,4.8,60.9,16.4l12.5,9.6c12.5,10.1,28.2,15.5,44.3,15.2h12.6c-0.6,3.2-1.3,6.4-2,9.6L594.8,507.3z"/>
</svg>
