<svg id="Layer_1" enable-background="new 0 0 128 128" height="512" viewBox="0 0 128 128" width="512" xmlns="http://www.w3.org/2000/svg"><path d="m114.119 98.37-26.714-7.756 16.571-23.312c.315-.445.217-1.061-.222-1.384l-7.212-5.318-26.591-19.608c-.272-.201-.627-.25-.945-.132l-.027.01c-.001 0-.001.001-.002.001 0 0 0 0-.001 0l-18.566 7.042v-27.288c0-.552-.447-1-1-1s-1 .448-1 1v28.046l-13.927 5.281c-.235.089-.428.263-.54.488l-2.124 4.247-14.553 29.108c-.141.281-.141.61-.001.892.139.281.402.48.71.538l17.833 3.365-15.098 14.822c-.395.387-.4 1.02-.014 1.414.196.199.455.299.714.299.253 0 .506-.095.7-.287l16.091-15.797 8.068 1.522 24.568 17.624c.171.123.375.188.583.188.055 0 .109-.004.164-.014.263-.044.497-.19.651-.407l13.942-19.614 27.383 7.95c.094.027.188.04.279.04.434 0 .833-.285.96-.722.155-.529-.15-1.084-.68-1.238z" fill="#e6e7e8"/><path d="m43.211 72.945c-8.302-3.019-12.442-10.597-14.497-17.81l-14.554 29.107 28.513 5.38 5.478-15.825c-1.815-.053-3.478-.321-4.94-.852z" fill="#d4fbff"/><path d="m99.16 62.723-7.212-5.318c-13.255 7.572-31.868 16.737-43.797 16.392l-5.478 15.825 24.747 17.753z" fill="#fff"/><path d="m48.151 73.797-5.478 15.825 21.818 15.652 31.669-44.551-4.375-3.226c-13.244 7.555-31.753 16.643-43.634 16.3z" fill="#6dc9f7"/><path d="m43.211 72.945c1.463.532 3.125.8 4.94.852l4.206-12.15 12.974-23.84-34.493 13.08-2.124 4.247c2.055 7.214 6.194 14.792 14.497 17.811z" fill="#ffd7e5"/><path d="m65.33 37.807-12.974 23.84-4.206 12.15c11.929.345 30.543-8.819 43.797-16.392l-26.59-19.608z" fill="#fa759e"/><g fill="#3a2c60"><path d="m110.119 94.37-26.715-7.756 16.571-23.312c.315-.445.217-1.061-.222-1.384l-7.211-5.318-26.591-19.608c-.273-.201-.628-.25-.945-.132l-.027.01c-.001 0-.001.001-.002.001 0 0 0 0-.001 0l-18.565 7.04v-27.286c0-.552-.447-1-1-1s-1 .448-1 1v28.046l-13.928 5.282c-.235.089-.428.263-.54.488l-2.123 4.247-14.554 29.107c-.141.281-.141.61-.001.892.139.281.402.48.71.538l17.833 3.365-15.098 14.822c-.395.387-.4 1.02-.014 1.414.196.199.455.299.714.299.253 0 .506-.095.7-.287l16.091-15.797 8.068 1.522 24.568 17.624c.171.123.375.188.583.188.055 0 .109-.004.164-.014.263-.044.497-.19.651-.407l2.342-3.294c.319-.45.214-1.075-.236-1.395-.45-.321-1.074-.214-1.395.235l-1.76 2.476-23.324-16.731 4.998-14.438c.579-.001 1.183-.04 1.789-.08.172-.012.335-.008.509-.023.798-.067 1.616-.166 2.453-.295.175-.027.36-.069.537-.099.667-.111 1.336-.227 2.023-.374.309-.066.629-.152.941-.224.568-.132 1.134-.258 1.714-.411.356-.094.722-.207 1.082-.308.548-.154 1.093-.302 1.649-.473.386-.119.78-.255 1.17-.381.54-.175 1.078-.344 1.624-.533.404-.14.812-.294 1.218-.441.311-.112.621-.222.934-.338l18.467 10.133-7.386 10.391c-.319.45-.214 1.075.236 1.395.449.32 1.073.214 1.395-.235l2.962-4.167 27.383 7.95c.094.027.188.04.279.04.434 0 .833-.285.96-.722.155-.533-.15-1.088-.68-1.242zm-81.615-36.578c.066.191.139.372.207.56.088.243.176.487.268.725.114.295.234.583.353.87.091.219.18.441.275.656.134.305.274.599.414.894.088.186.173.377.264.559.085.171.175.335.262.503l-4.61.364zm24.33 5.533 11.356 6.231c-5.308 1.872-10.357 3.11-14.635 3.239zm-5.384 9.438c-1.467-.096-2.775-.35-3.897-.758-3.909-1.421-7.127-4.007-9.639-7.706l16.929-1.338zm19.232-4.121-13.086-7.18 12.076-22.191 24.443 18.024c-7.107 4.008-15.469 8.297-23.433 11.347zm-35.125-16.958 31.605-11.985-11.533 21.194-18.902 1.494c-1.171-2.092-2.155-4.476-2.944-7.154zm-6.664 13.328 6.741-.533c.052.084.102.172.155.255.085.134.175.26.262.391.187.284.374.567.568.839.112.157.23.306.345.46.177.235.353.471.535.697.127.158.259.308.389.462.178.21.358.419.542.621.138.151.279.297.42.444.184.192.37.381.56.564.147.142.296.281.446.418.192.176.386.347.584.515.155.132.311.261.469.388.202.162.407.318.614.472.16.119.32.238.483.352.216.151.436.294.656.437.162.104.323.211.488.31.235.142.475.275.716.408.159.088.315.179.477.262.27.14.546.269.823.397.139.065.275.135.417.197.421.185.849.358 1.287.517.341.124.7.232 1.067.331.109.029.222.055.333.082.273.067.551.127.837.181.124.023.247.047.374.067.333.055.675.1 1.025.137.072.008.141.019.214.026.019.002.036.005.055.007l-4.648 13.424-.117.339-26.363-4.975zm44.05 4.87c.373-.149.744-.292 1.117-.445.425-.174.85-.359 1.276-.539.536-.227 1.071-.449 1.607-.684.431-.189.86-.385 1.29-.579.531-.238 1.062-.474 1.592-.719.431-.199.858-.405 1.288-.608.526-.249 1.053-.495 1.576-.748.431-.209.856-.421 1.284-.633.516-.255 1.033-.508 1.545-.766.428-.216.85-.435 1.275-.653.504-.259 1.009-.516 1.507-.777.42-.219.831-.44 1.245-.66.492-.261.985-.522 1.47-.784.416-.224.821-.448 1.23-.672.468-.256.937-.512 1.396-.767.413-.229.814-.456 1.219-.684.338-.19.685-.382 1.017-.571l5.897 4.349-11.636 16.374z"/><path d="m75.258 94.622-3.965 5.579c-.319.45-.214 1.074.236 1.394.176.125.378.185.578.185.313 0 .621-.146.816-.421l3.965-5.579c.319-.45.214-1.074-.236-1.394-.451-.321-1.074-.215-1.394.236z"/></g></svg>